<svg xmlns="http://www.w3.org/2000/svg" xml:space="preserve" width="563.493" height="563.507"><path d="M15.7 2111.01C15.7 966.699 955.62 35.719 2110.93 35.719c1155.34 0 2095.28 930.98 2095.28 2075.291 0 1144.31-939.94 2075.28-2095.28 2075.28-1155.309 0-2095.23-930.97-2095.23-2075.28" style="fill:#f9e603;fill-opacity:1;fill-rule:nonzero;stroke:none" transform="matrix(.13333 0 0 -.13333 0 563.507)"/><path d="M1218.44 1128.44s52.26-35.51 83.44-71.64c55.46-64.46 85.54-109.218 128.75-229.07l124.76 165.551L1455 982.582c-28.32 52.378-46.25 82.648-89.06 124.058-36.96 35.7-59.22 57.89-101.25 87.11-120.86 95-387.385 175.08-470.588 62.03-100.86-136.95 52.382-344.76 191.836-437.108 48.282-32.422 70.702-48.672 119.532-73.363 47.97-24.219 76.4-35.778 127.65-52.028l45.86-95.39 87.78 116.41 179.37-9.461-421.4 317.5 79.1-184.219-20.78-27.57c-29.96 6.398-46.8 11.871-74.57 24.758-31.45 14.691-75 47.742-75 47.742-68.48 51.558-82.582 148.359-31.53 216.089 51.1 67.81 148.01 80.94 216.49 29.3M926.426 2573.72c5.64 53.5 6.344 84.2 3.269 137.87l72.905 76.8L862.563 2829l-54.879 171.05-147.098-506.71 144.176 139.37 33.133-9.6c4.664-30.31 5.558-47.94 3.335-78.5-2.535-34.62-17.91-87.08-17.91-87.08-23.941-82.3-109.371-129.86-190.871-106.23-81.504 23.64-128.215 109.58-104.277 191.89 0 0 14.625 61.52 37.336 103.5 40.504 74.76 71.656 118.76 168.371 201.69l-199.113 57.84 45.66-90.01c-38.86-45.12-60.821-72.62-84.297-127.39-20.25-47.15-33.039-75.9-45.449-125.58-45.828-146.68-26.016-424.27 109.207-461.89 163.886-45.63 303.676 171.43 340.406 334.68 13.184 56.56 20.379 83.34 26.133 137.69M1667.89 3396.84h840.46v225.82l-170.89-133.28h-282.23v244.6l180.31 105.04h-550.38l147.38-105.04v-222.65l-164.65-114.49M3435.65 2614.89c7.41-73.92 27.71-144.99 50.93-232.75 12.22-46.26 48.34-109.09 2.44-122.83-24.8-7.45-50.2 51.09-68.1 101.56-15.97 45.09-74.57 268.63-6.84 416.15l-190.05-56.94c34.45-23.37 53.56-51.34 68.68-81.73 10.3-20.68 12.85-32.91 15.69-55.07 6.26-48.04 8.91-163.48 38.75-249.44 42.86-123.4 116.8-266.71 240.17-233.35 84.82 22.97 94.08 164.09 78.86 233.98-20.11 92.34-23.63 136.16-54.66 256.16-10.36 39.99-23.59 97.71 3.45 105.85 26.27 7.85 56.18-61.73 63.33-88.26 37.03-137.87 51.42-256.33 9.93-388.23l168.97 50.61-66.53 96.29c-3.47 104.56-15.24 182.06-35.65 244.68-39.64 121.63-126.77 267.29-237.91 225.81-86.58-32.37-90.73-130.58-81.46-222.49M3221.52 3146.02c-31.25-42.5-73.6-58.87-125.63-50.24-33.16 5.55-46.56 21.25-75.58 41.37l-108.75 76.13 158 210 101.25-77.65c28.56-20.71 45.94-32.43 60.59-63.36 22.77-48.17 21.72-93.36-9.88-136.25zm210.84 47.51c-29.86 79.69-65.51 118.56-136.46 170.37l-179.59 136.17-278.92 211.55 48.04-170.24-139.26-183.67-190.95 12.95 301.08-228.34 172.44-130.75c24.51-16.63 39.07-25.02 65.68-37.95 50.59-24.68 80.96-41.2 137.07-45.01 77.64-5.19 142.43-4.8 191.65 55.45 51.7 63.33 33.96 143.48 9.22 209.47M3585.43 3131.64l-104.54-214.41 231.99 51.28-127.45 163.13M3346.89 1409.96l24.98 165.59-292.23-272.52 71.74-207.31-187.52 99.32-338.55-315.681 178 25.762 155.3-166.492-37.76-165.109 349.53 325.968-159.53-16.828-165.58 177.56 338.38-148.349 78.28 72.961-116.6 357.218 167.59-179.76-34.43-162 296.6 276.62-172.91-33.41-155.29 166.46M2268.2 788.949 2155.27 659.59l-122.8 111.332 111.33 91.68h-527.16l157.18-90.043 217.7-203.028v-50.742l-173.49-117.848h577.9l-181.74 117.848v50.742l203.03 206.289 147.31 86.782h-394.54l98.21-73.653M1316.68 3198.98c-66.64-53.98-163.95-44.21-217.38 21.72-53.36 65.94-38.83 158.4 27.81 212.35 66.64 53.98 160.08 48.98 213.52-16.96 53.39-65.93 42.65-163.16-23.95-217.11zm-237.55 300c-136.169-97.19-282.419-308.44-176.876-441.88 87.109-110.04 364.376-14.84 481.836 84.3 121.41 94.26 253.56 330.62 164.02 438.75-108.55 131.01-345.62 31.83-468.98-81.17" style="fill:#231f20;fill-opacity:1;fill-rule:nonzero;stroke:none" transform="matrix(.13333 0 0 -.13333 0 563.507)"/><path d="M180 2113.12c0 1065.93 867.18 1933.13 1933.09 1933.13 1065.92 0 1933.12-867.2 1933.12-1933.13 0-1065.91-867.2-1933.12-1933.12-1933.12C1047.18 180 180 1047.21 180 2113.12Zm-180 0C0 947.949 947.926 0 2113.09 0c1165.18 0 2113.12 947.949 2113.12 2113.12 0 1165.18-947.94 2113.13-2113.12 2113.13C947.926 4226.25 0 3278.3 0 2113.12" style="fill:#231f20;fill-opacity:1;fill-rule:nonzero;stroke:none" transform="matrix(.13333 0 0 -.13333 0 563.507)"/><path d="M1213.67 2113.44c0 496.69 404.09 900.78 900.78 900.78 496.67 0 900.74-404.09 900.74-900.78 0-496.66-404.07-900.74-900.74-900.74-496.69 0-900.78 404.08-900.78 900.74zm-180 0c0-595.92 484.84-1080.74 1080.78-1080.74 595.93 0 1080.74 484.82 1080.74 1080.74 0 595.94-484.81 1080.78-1080.74 1080.78-595.94 0-1080.78-484.84-1080.78-1080.78M3679.55 1442.35c-3.5-1.79-7.17-5.9-11.16-12.33l-6.23-9.8 23.34-14.53 6.35 10.32c3.24 4.82 5.1 8.71 5.64 11.72 1.19 5.64-.91 9.96-5.71 13.12-4.69 2.97-8.9 3.4-12.23 1.5zm-18.13-5.46c5.02 7.99 9.63 13.41 13.59 16.19 6.88 4.9 14.65 4.76 22.69-.39 6.69-3.5 8.45-8.42 8.68-14.39.05-3.16-.28-6.97-2.59-11.49 3.47 4.61 8.08 6.89 13.07 7.08 4.93.35 9.19-.75 12.21-2.79l4.86-2.95c1.46-.97 2.98-2.03 4.87-3.02 1.81-.7 3.04-1.37 3.75-1.33l1.06-.03-6.84-11.02c-.33-.03-.45.12-.88.17-.14.12-.37.28-.72.33l-2.15 1.12-5.1 3.16c-7.62 4.69-13.63 5.76-19.53 3.31-1.48-1.54-5.21-5.23-9.12-11.32l-5.92-9.12 25.37-16.11-7.3-10.6-64.55 40.28zm-25.45-32.8c3.63-16.27 12.48-29.12 26.69-37.32 13.97-9.24 29.1-11.82 45.75-8.42 15.87 3.86 28.38 12.81 37.44 26.68 9.04 14.2 11.66 29.44 7.95 45.66-3.79 16.45-12.77 28.97-26.91 37.8-14.1 8.9-28.93 11.54-45.28 7.81-16.28-3.68-28.92-12.6-37.81-26.76-8.96-13.95-11.52-29.23-7.83-45.45zm126.97 28.77c4.35-18.91 1.38-36.6-9.1-52.64-10.34-16.5-24.94-26.77-44.08-31.14-18.33-4.07-36.09-.98-52.52 9.35-16.29 10.53-26.29 24.8-30.72 43.56-4.1 18.74-1.12 36.36 9.16 52.63 10.47 16.35 25 26.72 43.75 30.96 18.96 4.29 36.11 1.34 52.46-8.97 16.42-10.25 26.66-24.98 31.05-43.75" style="fill:#231f20;fill-opacity:1;fill-rule:nonzero;stroke:none" transform="matrix(.13333 0 0 -.13333 0 563.507)"/><path d="M2367.84 2135.85s-16.63-16.5-20.36-26.99c-21.54 5.8-42.61 12.48-64.33 17.46-7.19 19.23-15.29 38.91-29.16 52.78 0 0-2.58 8.38-6.33 19.56-3.05 9.07-7.46 15.97-7.46 15.97 3.09 29.79 11.64 62.16 23.89 88.1 18.28 17.82 34.12 37.19 45.04 58.22 13.53-12.16 29.55-18.27 46.38-22.49 5.04-5.49 8.99-11.47 11.74-17.91-11.56-21.68-20.1-44.94-16.99-72.14-.31-22.62 11.09-40.53 22.03-58.65 1.15-1.82 2.34-2.77 3.22-4.14 2.31-12.29-7.67-49.77-7.67-49.77zm-386.74 63.22c-4.08-11.36-5.08-19.29-5.08-19.29-13.2-16.64-21.04-35.55-28.52-54.59-22.35-5.35-44.39-11.16-66.1-17.95-2.93 3.71-15.73 21.12-26.76 29.1-1.97 14.55-2.63 30.06-2.3 45.11 1.79 2.86 4.3 5.26 5.97 8.21l.44.59 3.26 6.1c18.61 34.78 21.38 87.83-3.26 120.79 3.4 6.81 8.64 12.92 13.71 18.91 16.01 5.49 31.49 11.8 45.04 22.5 10.27-21.36 26.6-41.77 45.85-58.22 12.35-26.76 21.05-55.1 23.83-85.88-.87-1.36-3.43-7.89-6.08-15.38zm625.17-234.57c-6.19 6.29-14.02 9.08-19.9 15.2l16.8 25.27s.64.61.72 2.56c.1 1.86-.72 2.73-.72 2.73-5.06 5.02-10.8 11.02-18.44 11.33-5.74-.82-7.85-7.28-11.76-10.84h-1.95c-1.11.82-1.93 1.96-1.64 3.4l20.88 30.7s.82 1.18.82 2.62c0 1.47-.82 2.36-.82 2.36-5.53 6.63-13.71 12.78-22.38 11.31-4.52-2.75-6.96-10.58-10.55-10.48-2.19 1.21-1.51 1.62-1.66 2.75l18.5 27.17c1.69 3.61 2.07 7.59-1.2 10.33-6.21 4.63-12.73 12.19-20.76 6.62-3.4-2.77-4.86-7.75-8.94-8.89-.98.32-2.13 1.45-2.43 2.27l13.36 19.86c2.95 4.54 7.15 9.07 5.41 15.05-1.97 4.85-7.4 6.48-11.31 9.39-3.39 1.58-7.46.45-10.29-1.96-20.02-26.15-37.81-54.31-57.4-80.66l-29.12 17.48s.82 2.62.78 6.66c-.1 2.38-.1 3.89-.86 6.39-.68 5.88-21.21 30.09-26.89 47.87 4.62 20.77 14.55 39.59 22.16 59.26 12.25 30.86 16.84 70.12 5.06 102.82 8.97 22.44-7.5 39.27-10.1 59.31 1.94 25.39 2.84 49.38-8.9 72.91-1.95 34.91-8.54 69.65-33.54 94.99-.91 24.9-4.88 48.66-20.72 67.62-25.92 30.86-66.72 41.21-105.76 31.32-14.84 19.23-33.81 38.5-56.78 45.45-7.67 2.93-16.31 3.52-23.81 6.92-10.15 20.53-2.34 45.35-12.46 65.89 1.45 4.03 2.5 8.02 2.5 12.56 11.8 7.12 23.01 30.97 18.83 49.88-2.58 5.03-4.18 5.17-7.66 5.48 1.74 25.58 3.11 56.81-8.96 78.49-5.86 10.34-13.95 19.37-24.06 25.5-27.82 16.17-72.66 16.99-99.89-.61-37.18-20.86-39.64-65.01-33.94-103.65-2.58-.96-4.27.14-7.17-3.85-2.6-8.26-1.84-44.94 19.25-51.24l3.6-12.47c-11.92-20.22-.5-47.07-12.09-66.79-18.78-5.81-39.15-11.93-54.5-25.85-11.1-7.74-18.92-19.22-25.43-29.55-27.73 8.38-59.24 2.71-82.27-11.66-30.52-18.6-45.03-50.93-41.94-85.39-24.81-25.66-35.44-57.54-34.12-93.35-17.38-32.7.18-60.59-5.19-73.42 0 0-18.69-46.96-10.68-57.67-8.17-29.75-5.34-74.87 5.27-103.64 6.98-21.17 17.06-41.12 24.92-61.98-7.33-15.43-17.12-29.9-26.47-44.49-.88-1.37-2.4-3.48-2.97-6.87-.61-3.4 1.21-11.22 1.21-11.22l-30.5-17.46h-1.99l-58.76 83.13-2.76 1.89c-5.06 1.82-8.82-1.27-12.58-3.84-4.41-3.28-10.12-7.75-7.83-13.93l17.29-25.23c.35-1.29 1.17-3.56-.81-4.36-5.37.98-6.84 9.55-13.69 8.87-6.88-2.91-17.15-7.07-17.33-16.14 3.45-11.15 13.07-19.72 17.65-30.39.15-1.64-2.13-2.38-3.45-1.44-4.06 3.22-5.86 9.53-11.75 9.2-5.71-1.45-11.24-5.49-14.81-10.32-1.5-13.26 10.42-21.83 15.95-32.67 1.18-1.13 1.18-3.89 0-4.98-7.16-1.29-7.03 10.64-14.5 8.57-5.72-3.75-14.84-6.33-15.65-14.39 2.76-11 11.69-19.24 16.78-29.14-5.85-4.85-12.56-9.06-17.91-14.42-1.01-3.51 1.44-5.78 2.76-8.53 7.48-14.53 18.41 4.06 27.38 5.02 7.53-8.44 11.28-21.19 21.87-25.55 6.06 1.27 10.63 6.11 15.68 9.71 6.85 5.51-1.63 11.48-2.77 17.48.98 1.11 2.3 2.07 3.59 1.11l17.63-24.76 4.71-3.27c5.73-1.07 9.98 3.27 14.57 5.84 3.74 2.27 7.47 6.53 5.35 11.31-.64 3.77-6.99 6.82-3.42 10.88.83-.19 1.97.33 2.6-.37l18.46-26 3.58-2.24c8.83-.49 16.34 6.42 22.38 12.75 2.1 5.82-3.43 9.38-5.54 13.91.79 2.38 3.42 2.09 4.74.47 6.66-9.03 12.06-18.93 20.37-26.82 8.02-4.71 14.71 3.71 20.73 8.58 1.16 3.02 1.16 6.13 0 9.21l-58.43 84.24 26.03 15.41s7.94-10.1 12.69-11.66c7.66-2.38 19.96 3.89 20.66 6.08 2.11-1.76 7.65-5.43 14.58-4.12 9.78 1.83 10.2 4.1 13.05 7.93 0 0 7.45-2.66 12.85-2.09 2.94.37 10.2 2.03 11.8 10.44 0 0 8.88-2.77 14.77 2.58 8.8 8.24 3.12 21.99 1.7 32.46 18.6 5.84 37.54 11.84 56.79 14.69-6.17-28.42-13.04-56.74-15.32-86.74-5.54-95.6 9.95-184.67 81.88-248.81 5.26-14.35 7.04-30.23 10.63-45.43-12.89-21.95-23.51-44.92-30.51-69.33-23.38-87.46 22.83-161.99 57.11-233.58l1.97-9.7s-4.78-2.97-7.82-6.96c-2.27-2.99-2.81-17.63-6.22-25.7-8.34-13.28-26.4-31.05-34.95-48.65-19.22-7.5-34.73-15.51-33.6-28.15h13.21c.16.63 133.12.51 133.12.51-1.8 8.07-3.76 16.13-7.33 23.6 3.57 17.59 6.04 35.19 3.91 54.27-8.47 25.24-6.02 55.02-4.72 82.62l11.71 109.79c3.77-35.9 10.61-70.61 14.61-106.47 2.5-33.14-1.23-73.18-4.72-85.02-2.47-18.87-2.72-38.05 3.04-56.04-2.81-7.4-5.43-14.35-6.72-22.75h146.94c.97 18.71-20.61 21.47-32.48 28.6-7.03 16.32-21.08 29.74-34.09 43.47-5.25 8.75-7.5 26.39-8.73 29.12-1.17 2.72-9.29 8.56-9.29 8.56l1.97 7.03c21.84 46.11 43.94 87.09 56.82 136.83 14.68 57.74-1.51 119.87-30.22 167.06 2.13 16.32 4.77 30.15 9.49 45.52 12.07 10.51 22.85 23.58 32.46 36.19 55.82 72.25 55.98 178.48 40.63 268.83-1.45 11.49-6.06 22.15-7.31 33.28 19.24-5 39.18-9.51 57.11-16.95-1.27-7.44-1.68-11.97-1.68-19.9.14-3.15 1.45-11.21 7.23-13.54 9.67-4.68 18.83-2.38 18.83-2.38s2.91-5.62 12.15-7.5c9.2-1.89 12.11 1.19 12.11 1.19s1.4-5.99 8.4-7.15c7.03-1.17 14.78-3.71 20.17 3.89 1.86-3.69 13.54-8.53 17.91-3.09 4.4 5.4 5.22 9.69 5.22 9.69l23.02-13.59.47-1.27-51.72-74.9-5.04-8.89c-.6-3.05-.97-7.13 1.98-9.39 6.19-2.9 11.79-10.96 19.08-7.72l20.04 27.64c1.15.95 2.63-.18 3.42-1.14-.47-5.35-7.17-10.97-1.47-15.99 6.02-3.71 12.11-10.35 19.9-7.76l19.3 26.35 1.97-.56c4.28-3.48-4.94-9.16-3.28-14.95l16.13-10.35c2.31-1.62 5.38-.68 7.39.59l16.95 23.32 2.99 1.56c6.35-4.41-2.99-9-1.04-14.32 4.57-5.68 11.27-11.15 19.09-11.64 9.47 7.23 14.06 18.6 21.52 27.58 8.03-4.02 14.55-11.76 23.55-13.22 3.54 1.19 8.6 7.95 6.68 13.61" style="fill:#231f20;fill-opacity:1;fill-rule:nonzero;stroke:none" transform="matrix(.13333 0 0 -.13333 0 563.507)"/></svg>