<?xml version="1.0" encoding="UTF-8"?>
<svg version="1.1" viewBox="0 0 563.49 563.51" xml:space="preserve" xmlns="http://www.w3.org/2000/svg" xmlns:cc="http://creativecommons.org/ns#" xmlns:dc="http://purl.org/dc/elements/1.1/" xmlns:rdf="http://www.w3.org/1999/02/22-rdf-syntax-ns#"><metadata><rdf:RDF><cc:Work rdf:about=""><dc:format>image/svg+xml</dc:format><dc:type rdf:resource="http://purl.org/dc/dcmitype/StillImage"/></cc:Work></rdf:RDF></metadata><g transform="matrix(1.3333 0 0 -1.3333 0 563.51)"><g transform="scale(.1)" fill="#eee"><path d="m1218.4 1128.4s52.26-35.51 83.44-71.64c55.46-64.46 85.54-109.22 128.75-229.07l124.76 165.55-100.39-10.699c-28.32 52.378-46.25 82.648-89.06 124.06-36.96 35.7-59.22 57.89-101.25 87.11-120.86 95-387.38 175.08-470.59 62.03-100.86-136.95 52.382-344.76 191.84-437.11 48.282-32.422 70.702-48.672 119.53-73.363 47.97-24.219 76.41-35.778 127.66-52.028l45.85-95.39 87.78 116.41 179.37-9.461-421.4 317.5 79.1-184.22-20.78-27.57c-29.96 6.398-46.8 11.871-74.57 24.758-31.45 14.691-75 47.742-75 47.742-68.48 51.558-82.582 148.36-31.53 216.09 51.1 67.81 148.01 80.94 216.49 29.3"/><path d="m926.43 2573.7c5.64 53.5 6.344 84.2 3.269 137.87l72.905 76.8-140.04 40.61-54.875 171.05-147.1-506.71 144.18 139.37 33.133-9.6c4.664-30.31 5.558-47.94 3.335-78.5-2.535-34.62-17.91-87.08-17.91-87.08-23.941-82.31-109.37-129.86-190.87-106.23-81.504 23.64-128.22 109.58-104.27 191.89 0 0 14.621 61.52 37.332 103.5 40.504 74.76 71.656 118.76 168.37 201.69l-199.11 57.84 45.66-90.01c-38.86-45.12-60.821-72.62-84.297-127.39-20.25-47.15-33.039-75.9-45.449-125.58-45.825-146.68-26.016-424.27 109.21-461.89 163.89-45.63 303.68 171.43 340.41 334.68 13.184 56.56 20.383 83.34 26.133 137.69"/><path d="m1667.9 3396.8h840.46v225.82l-170.89-133.28h-282.23v244.6l180.31 105.04h-550.38l147.38-105.04v-222.65l-164.65-114.49"/><path d="m3435.6 2614.9c7.41-73.92 27.71-144.99 50.93-232.75 12.22-46.26 48.34-109.09 2.44-122.83-24.8-7.45-50.2 51.09-68.1 101.55-15.97 45.1-74.57 268.64-6.84 416.16l-190.05-56.94c34.45-23.37 53.56-51.34 68.68-81.73 10.3-20.68 12.85-32.92 15.69-55.07 6.26-48.04 8.91-163.48 38.75-249.44 42.86-123.4 116.8-266.71 240.17-233.35 84.82 22.97 94.08 164.09 78.86 233.98-20.11 92.34-23.63 136.16-54.66 256.16-10.36 39.99-23.59 97.71 3.46 105.85 26.26 7.85 56.17-61.73 63.32-88.26 37.03-137.87 51.42-256.33 9.93-388.23l168.97 50.61-66.53 96.29c-3.47 104.56-15.24 182.06-35.65 244.68-39.63 121.63-126.77 267.29-237.91 225.81-86.58-32.37-90.73-130.58-81.46-222.49"/><path d="m3221.5 3146c-31.25-42.5-73.6-58.87-125.63-50.24-33.16 5.55-46.56 21.25-75.58 41.37l-108.75 76.13 158.01 210 101.25-77.65c28.55-20.71 45.93-32.43 60.58-63.36 22.77-48.17 21.72-93.36-9.88-136.25zm210.84 47.51c-29.86 79.69-65.51 118.56-136.46 170.37l-179.59 136.17-278.92 211.55 48.04-170.24-139.26-183.67-190.95 12.95 301.08-228.34 172.44-130.75c24.51-16.63 39.07-25.02 65.68-37.95 50.59-24.68 80.97-41.2 137.07-45.01 77.65-5.19 142.43-4.8 191.65 55.45 51.7 63.33 33.96 143.48 9.22 209.47"/><path d="m3585.4 3131.6-104.54-214.41 232 51.28-127.46 163.13"/><path d="m3346.9 1410 24.98 165.59-292.23-272.52 71.74-207.31-187.52 99.32-338.55-315.68 178.01 25.762 155.29-166.49-37.76-165.11 349.54 325.97-159.54-16.828-165.58 177.55 338.38-148.34 78.28 72.949-116.6 357.23 167.59-179.76-34.43-162 296.6 276.62-172.91-33.41-155.29 166.46"/><path d="m2268.2 788.95-112.93-129.36-122.8 111.33 111.33 91.68h-527.16l157.18-90.043 217.7-203.03v-50.742l-173.49-117.85h577.9l-181.74 117.85v50.742l203.03 206.29 147.31 86.782h-394.53l98.2-73.653"/><path d="m1316.7 3199c-66.64-53.98-163.95-44.21-217.38 21.72-53.36 65.94-38.83 158.4 27.81 212.35 66.64 53.98 160.08 48.98 213.52-16.96 53.39-65.93 42.65-163.16-23.95-217.11zm-237.55 300c-136.17-97.19-282.42-308.44-176.87-441.88 87.105-110.04 364.37-14.84 481.83 84.3 121.41 94.25 253.56 330.62 164.03 438.74-108.56 131.02-345.63 31.84-468.99-81.16"/><path d="m180 2113.1c0 1065.9 867.18 1933.1 1933.1 1933.1 1065.9 0 1933.1-867.2 1933.1-1933.1 0-1065.9-867.2-1933.1-1933.1-1933.1-1065.9 0-1933.1 867.21-1933.1 1933.1zm-180 0c0-1165.2 947.93-2113.1 2113.1-2113.1 1165.2 0 2113.1 947.95 2113.1 2113.1 0 1165.2-947.94 2113.1-2113.1 2113.1-1165.2 0-2113.1-947.95-2113.1-2113.1"/><path d="m1213.7 2113.4c0 496.69 404.09 900.78 900.78 900.78 496.67 0 900.74-404.09 900.74-900.78 0-496.66-404.07-900.74-900.74-900.74-496.69 0-900.78 404.08-900.78 900.74zm-180 0c0-595.92 484.84-1080.7 1080.8-1080.7 595.93 0 1080.7 484.82 1080.7 1080.7 0 595.94-484.81 1080.8-1080.7 1080.8-595.94 0-1080.8-484.84-1080.8-1080.8"/><path d="m3679.6 1442.4c-3.5-1.79-7.17-5.9-11.16-12.33l-6.23-9.81 23.34-14.52 6.35 10.32c3.24 4.82 5.1 8.71 5.64 11.72 1.19 5.64-0.91 9.96-5.71 13.12-4.69 2.97-8.89 3.4-12.23 1.5zm-18.13-5.47c5.02 8 9.63 13.42 13.59 16.2 6.88 4.9 14.65 4.76 22.69-0.39 6.69-3.5 8.45-8.42 8.68-14.39 0.05-3.16-0.28-6.97-2.59-11.49 3.47 4.61 8.08 6.89 13.07 7.08 4.93 0.35 9.19-0.76 12.21-2.79l4.86-2.95c1.47-0.97 2.98-2.03 4.87-3.02 1.81-0.7 3.04-1.37 3.75-1.33l1.06-0.03-6.84-11.03c-0.33-0.02-0.45 0.13-0.88 0.18-0.14 0.12-0.37 0.28-0.72 0.33l-2.15 1.12-5.1 3.16c-7.62 4.69-13.63 5.76-19.53 3.31-1.48-1.54-5.21-5.23-9.12-11.32l-5.92-9.12 25.38-16.11-7.31-10.6-64.55 40.27zm-25.45-32.79c3.63-16.27 12.48-29.12 26.69-37.32 13.98-9.24 29.1-11.82 45.75-8.42 15.87 3.86 28.38 12.81 37.44 26.68 9.04 14.2 11.66 29.44 7.95 45.66-3.79 16.45-12.77 28.97-26.91 37.8-14.1 8.9-28.93 11.54-45.28 7.81-16.28-3.68-28.92-12.6-37.81-26.76-8.96-13.95-11.52-29.23-7.83-45.45zm126.97 28.77c4.35-18.91 1.38-36.6-9.1-52.65-10.34-16.49-24.94-26.76-44.08-31.13-18.33-4.07-36.09-0.98-52.52 9.35-16.29 10.53-26.29 24.8-30.72 43.56-4.1 18.74-1.11 36.36 9.16 52.63 10.47 16.35 25 26.72 43.75 30.96 18.96 4.29 36.11 1.34 52.46-8.97 16.43-10.25 26.66-24.98 31.05-43.75"/><path d="m2367.8 2135.8s-16.62-16.5-20.35-26.99c-21.55 5.8-42.62 12.48-64.34 17.46-7.19 19.23-15.29 38.91-29.16 52.78 0 0-2.58 8.38-6.33 19.56-3.05 9.07-7.46 15.97-7.46 15.97 3.09 29.79 11.64 62.16 23.89 88.09 18.28 17.83 34.12 37.2 45.04 58.23 13.53-12.16 29.55-18.27 46.38-22.49 5.04-5.49 8.99-11.47 11.74-17.91-11.56-21.68-20.1-44.94-16.99-72.14-0.31-22.62 11.09-40.53 22.03-58.65 1.15-1.82 2.34-2.77 3.22-4.14 2.31-12.29-7.67-49.77-7.67-49.77zm-386.74 63.22c-4.08-11.36-5.08-19.29-5.08-19.29-13.2-16.64-21.04-35.55-28.52-54.59-22.35-5.35-44.39-11.16-66.1-17.95-2.93 3.71-15.73 21.12-26.76 29.1-1.97 14.55-2.63 30.06-2.3 45.11 1.79 2.86 4.3 5.26 5.97 8.21l0.44 0.59 3.26 6.1c18.61 34.78 21.38 87.83-3.26 120.79 3.4 6.81 8.64 12.92 13.71 18.9 16.01 5.5 31.49 11.81 45.04 22.51 10.27-21.36 26.6-41.77 45.85-58.22 12.35-26.76 21.05-55.1 23.83-85.88-0.87-1.36-3.43-7.89-6.08-15.38zm625.17-234.57c-6.19 6.29-14.02 9.08-19.9 15.2l16.8 25.27s0.64 0.61 0.72 2.56c0.1 1.85-0.72 2.73-0.72 2.73-5.06 5.02-10.8 11.02-18.44 11.33-5.74-0.82-7.85-7.28-11.76-10.84h-1.95c-1.11 0.82-1.93 1.96-1.64 3.4l20.88 30.7s0.82 1.18 0.82 2.62c0 1.47-0.82 2.36-0.82 2.36-5.53 6.63-13.71 12.78-22.38 11.31-4.52-2.75-6.96-10.58-10.55-10.49-2.19 1.22-1.5 1.63-1.66 2.76l18.5 27.17c1.69 3.61 2.07 7.59-1.2 10.33-6.21 4.63-12.73 12.19-20.76 6.62-3.4-2.77-4.86-7.75-8.94-8.89-0.98 0.32-2.13 1.45-2.43 2.27l13.36 19.86c2.95 4.54 7.15 9.07 5.41 15.05-1.97 4.85-7.4 6.47-11.3 9.39-3.4 1.58-7.47 0.44-10.3-1.96-20.02-26.15-37.81-54.31-57.4-80.66l-29.12 17.48s0.82 2.62 0.78 6.66c-0.1 2.38-0.1 3.89-0.86 6.39-0.68 5.87-21.21 30.09-26.89 47.87 4.63 20.77 14.55 39.59 22.16 59.26 12.25 30.86 16.84 70.12 5.06 102.82 8.97 22.44-7.5 39.27-10.09 59.31 1.93 25.39 2.83 49.38-8.91 72.91-1.95 34.91-8.54 69.65-33.54 94.99-0.91 24.9-4.88 48.66-20.72 67.62-25.92 30.86-66.72 41.21-105.76 31.32-14.84 19.23-33.81 38.5-56.78 45.45-7.67 2.93-16.31 3.52-23.81 6.92-10.15 20.53-2.34 45.35-12.46 65.89 1.45 4.03 2.5 8.02 2.5 12.56 11.8 7.12 23.01 30.97 18.83 49.88-2.58 5.03-4.18 5.17-7.66 5.48 1.74 25.58 3.11 56.81-8.96 78.49-5.86 10.34-13.95 19.37-24.06 25.49-27.82 16.18-72.66 17-99.89-0.6-37.18-20.86-39.64-65.01-33.94-103.65-2.58-0.96-4.27 0.14-7.17-3.85-2.6-8.26-1.84-44.94 19.25-51.24l3.6-12.47c-11.92-20.22-0.5-47.07-12.09-66.79-18.78-5.81-39.15-11.93-54.5-25.85-11.1-7.74-18.92-19.22-25.43-29.55-27.73 8.37-59.24 2.71-82.27-11.66-30.52-18.6-45.03-50.93-41.94-85.39-24.81-25.66-35.44-57.54-34.12-93.35-17.38-32.7 0.18-60.59-5.19-73.42 0 0-18.69-46.97-10.68-57.67-8.17-29.75-5.33-74.87 5.28-103.64 6.97-21.17 17.05-41.12 24.91-61.98-7.33-15.43-17.12-29.9-26.47-44.49-0.88-1.37-2.4-3.48-2.97-6.88-0.61-3.39 1.22-11.21 1.22-11.21l-30.51-17.46h-1.99l-58.75 83.13-2.77 1.89c-5.06 1.82-8.82-1.27-12.58-3.85-4.41-3.27-10.12-7.74-7.83-13.92l17.29-25.24c0.35-1.28 1.17-3.55-0.8-4.35-5.38 0.98-6.85 9.55-13.7 8.87-6.88-2.91-17.14-7.07-17.32-16.14 3.44-11.15 13.06-19.72 17.64-30.39 0.15-1.64-2.13-2.38-3.45-1.44-4.06 3.22-5.86 9.53-11.75 9.2-5.71-1.45-11.24-5.49-14.81-10.32-1.5-13.26 10.42-21.83 15.95-32.67 1.18-1.13 1.18-3.89 0-4.98-7.16-1.29-7.03 10.64-14.5 8.57-5.72-3.75-14.84-6.33-15.65-14.39 2.76-11 11.69-19.24 16.78-29.14-5.85-4.85-12.56-9.07-17.91-14.42-1.01-3.51 1.44-5.78 2.76-8.53 7.48-14.53 18.41 4.06 27.38 5.02 7.53-8.44 11.28-21.19 21.87-25.55 6.06 1.27 10.63 6.11 15.68 9.71 6.85 5.5-1.63 11.48-2.77 17.48 0.98 1.11 2.3 2.07 3.59 1.11l17.63-24.76 4.71-3.27c5.73-1.07 9.98 3.27 14.57 5.84 3.74 2.27 7.48 6.53 5.35 11.31-0.64 3.77-6.99 6.82-3.42 10.88 0.83-0.19 1.97 0.33 2.61-0.37l18.45-26 3.58-2.24c8.83-0.49 16.34 6.42 22.38 12.75 2.1 5.82-3.43 9.38-5.54 13.91 0.79 2.38 3.42 2.09 4.74 0.47 6.66-9.03 12.06-18.93 20.37-26.82 8.02-4.71 14.71 3.71 20.73 8.57 1.16 3.03 1.16 6.14 0 9.22l-58.43 84.24 26.03 15.41s7.94-10.1 12.7-11.66c7.65-2.38 19.95 3.89 20.65 6.08 2.11-1.76 7.65-5.43 14.58-4.13 9.78 1.84 10.21 4.11 13.05 7.93 0 0 7.45-2.65 12.85-2.09 2.94 0.38 10.2 2.04 11.81 10.45 0 0 8.87-2.77 14.76 2.58 8.8 8.24 3.13 21.99 1.7 32.46 18.6 5.84 37.54 11.84 56.79 14.69-6.17-28.42-13.04-56.74-15.32-86.74-5.54-95.6 9.95-184.67 81.88-248.81 5.26-14.35 7.04-30.23 10.63-45.43-12.89-21.95-23.51-44.92-30.51-69.33-23.38-87.46 22.83-161.99 57.11-233.58l1.97-9.7s-4.78-2.97-7.82-6.96c-2.26-2.99-2.81-17.63-6.21-25.7-8.34-13.28-26.41-31.05-34.96-48.65-19.22-7.5-34.73-15.51-33.6-28.15h13.21c0.16 0.63 133.12 0.51 133.12 0.51-1.8 8.07-3.76 16.13-7.33 23.59 3.57 17.6 6.04 35.2 3.91 54.28-8.47 25.24-6.01 55.02-4.72 82.62l11.71 109.78c3.77-35.89 10.61-70.6 14.61-106.46 2.5-33.14-1.23-73.18-4.72-85.02-2.46-18.87-2.72-38.05 3.04-56.04-2.81-7.4-5.43-14.35-6.72-22.75h133.7 13.24c0.97 18.71-20.61 21.47-32.48 28.59-7.03 16.33-21.08 29.75-34.08 43.48-5.26 8.75-7.5 26.39-8.74 29.12-1.17 2.72-9.29 8.56-9.29 8.56l1.97 7.03c21.84 46.11 43.95 87.09 56.82 136.83 14.68 57.74-1.51 119.87-30.22 167.06 2.13 16.32 4.77 30.15 9.49 45.52 12.07 10.51 22.86 23.58 32.47 36.19 55.82 72.25 55.97 178.48 40.62 268.83-1.45 11.49-6.05 22.15-7.3 33.28 19.23-5 39.18-9.51 57.1-16.95-1.26-7.44-1.67-11.97-1.67-19.9 0.13-3.15 1.44-11.21 7.22-13.54 9.67-4.68 18.83-2.38 18.83-2.38s2.91-5.63 12.15-7.5c9.2-1.89 12.11 1.19 12.11 1.19s1.4-5.99 8.4-7.15c7.03-1.17 14.78-3.71 20.17 3.89 1.86-3.69 13.54-8.54 17.91-3.09 4.4 5.39 5.22 9.69 5.22 9.69l23.02-13.59 0.47-1.27-51.72-74.9-5.03-8.89c-0.61-3.05-0.98-7.13 1.97-9.4 6.19-2.89 11.79-10.95 19.08-7.71l20.04 27.64c1.15 0.95 2.64-0.18 3.42-1.14-0.47-5.35-7.17-10.97-1.47-15.99 6.02-3.71 12.11-10.35 19.9-7.76l19.3 26.35 1.97-0.57c4.28-3.47-4.94-9.16-3.28-14.94l16.14-10.35c2.3-1.62 5.37-0.68 7.38 0.59l16.95 23.32 2.99 1.56c6.35-4.41-2.99-9-1.04-14.32 4.57-5.68 11.27-11.15 19.09-11.64 9.47 7.23 14.06 18.6 21.52 27.58 8.03-4.02 14.55-11.76 23.55-13.22 3.54 1.19 8.6 7.95 6.68 13.61"/></g></g></svg>
